<svg width="512" height="512" viewBox="0 0 512 512" fill="none" xmlns="http://www.w3.org/2000/svg">
<path d="M0 0H21.5637L191.862 482.01L362.16 0H383.447L202.644 512H181.08L0 0ZM205.685 400.696L194.35 429.14L42.851 0H64.1382L205.685 400.696ZM226.972 339.787L216.467 370.396L85.7019 0H107.266L226.972 339.787ZM247.983 277.952L237.477 309.179L128.553 0H149.84L247.983 277.952ZM490.436 0H512L330.92 512H309.633L490.436 0ZM447.862 0H469.149L288.069 512H266.782L447.862 0ZM404.734 0H426.298L245.218 512H223.931L404.734 0Z" fill="#D72828"/>
</svg>
