<svg width="2613" height="512" viewBox="0 0 2613 512" fill="none" xmlns="http://www.w3.org/2000/svg">
<path d="M650.009 364L559.409 154H611.909L691.109 340H660.209L740.609 154H788.909L698.009 364H650.009ZM867.931 366.4C850.731 366.4 835.431 362.8 822.031 355.6C808.831 348.4 798.331 338.6 790.531 326.2C782.931 313.6 779.131 299.3 779.131 283.3C779.131 267.1 782.931 252.8 790.531 240.4C798.331 227.8 808.831 218 822.031 211C835.431 203.8 850.731 200.2 867.931 200.2C884.931 200.2 900.131 203.8 913.531 211C926.931 218 937.431 227.7 945.031 240.1C952.631 252.5 956.431 266.9 956.431 283.3C956.431 299.3 952.631 313.6 945.031 326.2C937.431 338.6 926.931 348.4 913.531 355.6C900.131 362.8 884.931 366.4 867.931 366.4ZM867.931 328C875.731 328 882.731 326.2 888.931 322.6C895.131 319 900.031 313.9 903.631 307.3C907.231 300.5 909.031 292.5 909.031 283.3C909.031 273.9 907.231 265.9 903.631 259.3C900.031 252.7 895.131 247.6 888.931 244C882.731 240.4 875.731 238.6 867.931 238.6C860.131 238.6 853.131 240.4 846.931 244C840.731 247.6 835.731 252.7 831.931 259.3C828.331 265.9 826.531 273.9 826.531 283.3C826.531 292.5 828.331 300.5 831.931 307.3C835.731 313.9 840.731 319 846.931 322.6C853.131 326.2 860.131 328 867.931 328ZM987.713 364V141.4H1034.51V364H987.713ZM1121.75 364L1053.95 202.6H1102.25L1158.65 341.5H1134.65L1193.15 202.6H1238.15L1170.05 364H1121.75ZM1332.95 366.4C1314.55 366.4 1298.35 362.8 1284.35 355.6C1270.55 348.4 1259.85 338.6 1252.25 326.2C1244.65 313.6 1240.85 299.3 1240.85 283.3C1240.85 267.1 1244.55 252.8 1251.95 240.4C1259.55 227.8 1269.85 218 1282.85 211C1295.85 203.8 1310.55 200.2 1326.95 200.2C1342.75 200.2 1356.95 203.6 1369.55 210.4C1382.35 217 1392.45 226.6 1399.85 239.2C1407.25 251.6 1410.95 266.5 1410.95 283.9C1410.95 285.7 1410.85 287.8 1410.65 290.2C1410.45 292.4 1410.25 294.5 1410.05 296.5H1278.95V269.2H1385.45L1367.45 277.3C1367.45 268.9 1365.75 261.6 1362.35 255.4C1358.95 249.2 1354.25 244.4 1348.25 241C1342.25 237.4 1335.25 235.6 1327.25 235.6C1319.25 235.6 1312.15 237.4 1305.95 241C1299.95 244.4 1295.25 249.3 1291.85 255.7C1288.45 261.9 1286.75 269.3 1286.75 277.9V285.1C1286.75 293.9 1288.65 301.7 1292.45 308.5C1296.45 315.1 1301.95 320.2 1308.95 323.8C1316.15 327.2 1324.55 328.9 1334.15 328.9C1342.75 328.9 1350.25 327.6 1356.65 325C1363.25 322.4 1369.25 318.5 1374.65 313.3L1399.55 340.3C1392.15 348.7 1382.85 355.2 1371.65 359.8C1360.45 364.2 1347.55 366.4 1332.95 366.4ZM1630.87 367.6C1614.67 367.6 1599.57 365 1585.57 359.8C1571.77 354.4 1559.77 346.8 1549.57 337C1539.37 327.2 1531.37 315.7 1525.57 302.5C1519.97 289.3 1517.17 274.8 1517.17 259C1517.17 243.2 1519.97 228.7 1525.57 215.5C1531.37 202.3 1539.37 190.8 1549.57 181C1559.97 171.2 1572.07 163.7 1585.87 158.5C1599.67 153.1 1614.77 150.4 1631.17 150.4C1649.37 150.4 1665.77 153.6 1680.37 160C1695.17 166.2 1707.57 175.4 1717.57 187.6L1686.37 216.4C1679.17 208.2 1671.17 202.1 1662.37 198.1C1653.57 193.9 1643.97 191.8 1633.57 191.8C1623.77 191.8 1614.77 193.4 1606.57 196.6C1598.37 199.8 1591.27 204.4 1585.27 210.4C1579.27 216.4 1574.57 223.5 1571.17 231.7C1567.97 239.9 1566.37 249 1566.37 259C1566.37 269 1567.97 278.1 1571.17 286.3C1574.57 294.5 1579.27 301.6 1585.27 307.6C1591.27 313.6 1598.37 318.2 1606.57 321.4C1614.77 324.6 1623.77 326.2 1633.57 326.2C1643.97 326.2 1653.57 324.2 1662.37 320.2C1671.17 316 1679.17 309.7 1686.37 301.3L1717.57 330.1C1707.57 342.3 1695.17 351.6 1680.37 358C1665.77 364.4 1649.27 367.6 1630.87 367.6ZM1845.21 364V332.5L1842.21 325.6V269.2C1842.21 259.2 1839.11 251.4 1832.91 245.8C1826.91 240.2 1817.61 237.4 1805.01 237.4C1796.41 237.4 1787.91 238.8 1779.51 241.6C1771.31 244.2 1764.31 247.8 1758.51 252.4L1741.71 219.7C1750.51 213.5 1761.11 208.7 1773.51 205.3C1785.91 201.9 1798.51 200.2 1811.31 200.2C1835.91 200.2 1855.01 206 1868.61 217.6C1882.21 229.2 1889.01 247.3 1889.01 271.9V364H1845.21ZM1796.01 366.4C1783.41 366.4 1772.61 364.3 1763.61 360.1C1754.61 355.7 1747.71 349.8 1742.91 342.4C1738.11 335 1735.71 326.7 1735.71 317.5C1735.71 307.9 1738.01 299.5 1742.61 292.3C1747.41 285.1 1754.91 279.5 1765.11 275.5C1775.31 271.3 1788.61 269.2 1805.01 269.2H1847.91V296.5H1810.11C1799.11 296.5 1791.51 298.3 1787.31 301.9C1783.31 305.5 1781.31 310 1781.31 315.4C1781.31 321.4 1783.61 326.2 1788.21 329.8C1793.01 333.2 1799.51 334.9 1807.71 334.9C1815.51 334.9 1822.51 333.1 1828.71 329.5C1834.91 325.7 1839.41 320.2 1842.21 313L1849.41 334.6C1846.01 345 1839.81 352.9 1830.81 358.3C1821.81 363.7 1810.21 366.4 1796.01 366.4ZM2026.77 366.4C2013.17 366.4 2001.27 363.4 1991.07 357.4C1980.87 351.4 1972.87 342.3 1967.07 330.1C1961.47 317.7 1958.67 302.1 1958.67 283.3C1958.67 264.3 1961.37 248.7 1966.77 236.5C1972.17 224.3 1979.97 215.2 1990.17 209.2C2000.37 203.2 2012.57 200.2 2026.77 200.2C2041.97 200.2 2055.57 203.7 2067.57 210.7C2079.77 217.5 2089.37 227.1 2096.37 239.5C2103.57 251.9 2107.17 266.5 2107.17 283.3C2107.17 300.3 2103.57 315 2096.37 327.4C2089.37 339.8 2079.77 349.4 2067.57 356.2C2055.57 363 2041.97 366.4 2026.77 366.4ZM1931.37 422.2V202.6H1976.07V235.6L1975.17 283.6L1978.17 331.3V422.2H1931.37ZM2018.67 328C2026.47 328 2033.37 326.2 2039.37 322.6C2045.57 319 2050.47 313.9 2054.07 307.3C2057.87 300.5 2059.77 292.5 2059.77 283.3C2059.77 273.9 2057.87 265.9 2054.07 259.3C2050.47 252.7 2045.57 247.6 2039.37 244C2033.37 240.4 2026.47 238.6 2018.67 238.6C2010.87 238.6 2003.87 240.4 1997.67 244C1991.47 247.6 1986.57 252.7 1982.97 259.3C1979.37 265.9 1977.57 273.9 1977.57 283.3C1977.57 292.5 1979.37 300.5 1982.97 307.3C1986.57 313.9 1991.47 319 1997.67 322.6C2003.87 326.2 2010.87 328 2018.67 328ZM2138.49 364V202.6H2185.29V364H2138.49ZM2161.89 180.1C2153.29 180.1 2146.29 177.6 2140.89 172.6C2135.49 167.6 2132.79 161.4 2132.79 154C2132.79 146.6 2135.49 140.4 2140.89 135.4C2146.29 130.4 2153.29 127.9 2161.89 127.9C2170.49 127.9 2177.49 130.3 2182.89 135.1C2188.29 139.7 2190.99 145.7 2190.99 153.1C2190.99 160.9 2188.29 167.4 2182.89 172.6C2177.69 177.6 2170.69 180.1 2161.89 180.1ZM2294.73 366.4C2275.73 366.4 2260.93 361.6 2250.33 352C2239.73 342.2 2234.43 327.7 2234.43 308.5V166.9H2281.23V307.9C2281.23 314.7 2283.03 320 2286.63 323.8C2290.23 327.4 2295.13 329.2 2301.33 329.2C2308.73 329.2 2315.03 327.2 2320.23 323.2L2332.83 356.2C2328.03 359.6 2322.23 362.2 2315.43 364C2308.83 365.6 2301.93 366.4 2294.73 366.4ZM2209.53 242.2V206.2H2321.43V242.2H2209.53ZM2458.1 364V332.5L2455.1 325.6V269.2C2455.1 259.2 2452 251.4 2445.8 245.8C2439.8 240.2 2430.5 237.4 2417.9 237.4C2409.3 237.4 2400.8 238.8 2392.4 241.6C2384.2 244.2 2377.2 247.8 2371.4 252.4L2354.6 219.7C2363.4 213.5 2374 208.7 2386.4 205.3C2398.8 201.9 2411.4 200.2 2424.2 200.2C2448.8 200.2 2467.9 206 2481.5 217.6C2495.1 229.2 2501.9 247.3 2501.9 271.9V364H2458.1ZM2408.9 366.4C2396.3 366.4 2385.5 364.3 2376.5 360.1C2367.5 355.7 2360.6 349.8 2355.8 342.4C2351 335 2348.6 326.7 2348.6 317.5C2348.6 307.9 2350.9 299.5 2355.5 292.3C2360.3 285.1 2367.8 279.5 2378 275.5C2388.2 271.3 2401.5 269.2 2417.9 269.2H2460.8V296.5H2423C2412 296.5 2404.4 298.3 2400.2 301.9C2396.2 305.5 2394.2 310 2394.2 315.4C2394.2 321.4 2396.5 326.2 2401.1 329.8C2405.9 333.2 2412.4 334.9 2420.6 334.9C2428.4 334.9 2435.4 333.1 2441.6 329.5C2447.8 325.7 2452.3 320.2 2455.1 313L2462.3 334.6C2458.9 345 2452.7 352.9 2443.7 358.3C2434.7 363.7 2423.1 366.4 2408.9 366.4ZM2544.26 364V141.4H2591.06V364H2544.26Z" fill="#F5F5F5"/>
<path d="M0 0H21.5637L191.862 482.01L362.16 0H383.447L202.644 512H181.08L0 0ZM205.685 400.696L194.35 429.14L42.851 0H64.1382L205.685 400.696ZM226.972 339.787L216.467 370.396L85.7019 0H107.266L226.972 339.787ZM247.983 277.952L237.477 309.179L128.553 0H149.84L247.983 277.952ZM490.436 0H512L330.92 512H309.633L490.436 0ZM447.862 0H469.149L288.069 512H266.782L447.862 0ZM404.734 0H426.298L245.218 512H223.931L404.734 0Z" fill="#D72828"/>
</svg>
